<svg width="166" height="164" viewBox="0 0 166 164" fill="none" xmlns="http://www.w3.org/2000/svg">
<path d="M31.9248 119.74C43.4834 117.318 54.8138 124.738 57.2139 136.301C59.6138 147.864 52.1724 159.181 40.6045 161.559C29.0681 163.93 17.7905 156.512 15.3965 144.98C13.0034 133.449 20.3977 122.157 31.9248 119.74ZM85.0527 59.2695C94.4758 58.6939 106.849 58.9705 116.95 59.0049C116.712 70.2983 116.632 81.594 116.713 92.8896L116.761 98.0215C116.782 110.579 116.936 120.438 114.517 129.251C112.142 137.9 107.245 145.634 96.8633 153.682C89.1065 158.893 82.5427 160.679 73.585 161.184C73.5527 157.043 73.4468 150.594 73.3379 142.981C73.2081 133.916 73.0753 123.172 73.0605 112.623C73.0457 102.069 73.1488 91.7306 73.4902 83.4707C73.6611 79.3387 73.8912 75.7527 74.1914 72.9316C74.5005 70.0266 74.8639 68.1692 75.2119 67.3262C76.8753 63.2984 80.5333 61.2244 85.0527 59.2695ZM41.8652 2.38867C55.1813 1.67392 72.2695 2.16099 85.9531 2.16895H85.9541L163.115 2.14746C161.368 13.5186 157.719 22.7915 151.783 29.8623C145.497 37.3511 136.5 42.5455 124.016 45.0498C114.263 46.0144 94.9512 45.5818 82.9688 45.5273L80.668 45.5225L2.25098 45.5352C3.73554 34.4951 7.67638 24.9738 13.9199 17.6504C20.5425 9.8824 29.8495 4.47647 41.8652 2.38867Z" stroke="#F8FAFC" stroke-width="4"/>
</svg>
